# xmcd CD database file
#
# Track frame offsets:
#	150
#	20176
#	38889
#	56278
#	76923
#	96904
#	119514
#	143072
#	162835
#	185317
#	202529
#	223135
#	244654
#	256608
#	275186
#
# Disc length: 3841 seconds
#
# Revision: 10
# Processed by: cddbd v1.5PL3 Copyright (c) Steve Scherf et al.
# Submitted via: CDex 1.50beta8
#
DISCID=cd0eff0f
DTITLE=Every Little Thing - Every Best Single+3
DYEAR=1999
DGENRE=JPop
TTITLE0=Feel My Heart
TTITLE1=Future World
TTITLE2=Dear My Friend
TTITLE3=For the moment
TTITLE4=出逢った頃のように
TTITLE5=Shapes Of Love
TTITLE6=Time goes by
TTITLE7=Face the change
TTITLE8=FOREVER YOURS
TTITLE9=NECESSARY
TTITLE10=Someday, Someplace
TTITLE11=Over and Over
TTITLE12=(When) Will It Rain
TTITLE13=キモチ
TTITLE14=Dedicate
EXTD=YEAR: 1999
EXTT0=
EXTT1=
EXTT2=
EXTT3=
EXTT4=
EXTT5=
EXTT6=
EXTT7=
EXTT8=
EXTT9=
EXTT10=
EXTT11=
EXTT12=
EXTT13=
EXTT14=
PLAYORDER=
